<svg xmlns="http://www.w3.org/2000/svg" viewBox="0 0 512 512" style="enable-background:new 0 0 512 512" xml:space="preserve"><path style="fill:#e6e6e6" d="m286.378 211.608-3.972 37.7L256 499.819l-26.417-250.511-3.972-37.7z"/><circle style="fill:#f95428" cx="256.006" cy="114.203" r="102.017"/><path style="fill:#e54728" d="M294.383 177.829c-56.341 0-102.013-45.673-102.013-102.013 0-18.311 4.849-35.479 13.296-50.336-30.854 17.543-51.678 50.688-51.678 88.718 0 56.341 45.673 102.013 102.013 102.013 38.03 0 71.174-20.825 88.718-51.678-14.856 8.449-32.025 13.296-50.336 13.296z"/><path style="fill:#b3b3b3" d="m286.378 211.608-3.972 37.702c-8.42 2.266-17.267 3.461-26.406 3.461s-17.998-1.206-26.418-3.461l-3.972-37.702h60.768z"/><path style="fill:#333" d="M370.199 114.199C370.199 51.229 318.97 0 256 0S141.801 51.229 141.801 114.199c0 48.26 30.091 89.622 72.495 106.314l29.579 280.579a12.186 12.186 0 0 0 24.237 0l29.579-280.575c42.412-16.69 72.508-58.055 72.508-106.318zM255.996 383.587 239.51 227.203a114.708 114.708 0 0 0 16.491 1.195c5.597 0 11.097-.412 16.481-1.193l-16.486 156.382zm.004-179.56c-49.53 0-89.828-40.296-89.828-89.828S206.47 24.371 256 24.371s89.828 40.296 89.828 89.828-40.296 89.828-89.828 89.828z"/><ellipse transform="rotate(-134.999 293.699 78.6)" style="fill:#f47c6c" cx="293.697" cy="78.6" rx="37.113" ry="25.87"/></svg>